<?xml version="1.0" standalone="no"?>
<!DOCTYPE svg PUBLIC "-//W3C//DTD SVG 1.1//EN"
 "http://www.w3.org/Graphics/SVG/1.1/DTD/svg11.dtd">

<svg version="1.1" xmlns="http://www.w3.org/2000/svg"
  xmlns:xlink="http://www.w3.org/1999/xlink">
<!-- automatically generated by aafigure -->
<line x1="346.5" y1="10.5" x2="510.3" y2="10.5" stroke="#000000" stroke-width="2.0" />
<line x1="346.5" y1="10.5" x2="346.5" y2="52.5" stroke="#000000" stroke-width="2.0" />
<line x1="510.3" y1="10.5" x2="510.3" y2="52.5" stroke="#000000" stroke-width="2.0" />
<line x1="346.5" y1="52.5" x2="422.1" y2="52.5" stroke="#000000" stroke-width="2.0" />
<line x1="422.1" y1="52.5" x2="510.3" y2="52.5" stroke="#000000" stroke-width="2.0" />
<g>
    <line x1="422.1" y1="126.0" x2="416.85" y2="110.25" stroke="#000000" stroke-width="2.0" />
    <line x1="422.1" y1="126.0" x2="427.35" y2="110.25" stroke="#000000" stroke-width="2.0" />
    <line x1="422.1" y1="52.5" x2="422.1" y2="126.0" stroke="#000000" stroke-width="2.0" />
</g>
<line x1="321.3" y1="136.5" x2="321.3" y2="157.5" stroke="#000000" stroke-width="2.0" />
<line x1="321.3" y1="136.5" x2="548.1" y2="136.5" stroke="#000000" stroke-width="2.0" />
<line x1="107.1" y1="157.5" x2="321.3" y2="157.5" stroke="#000000" stroke-width="2.0" />
<line x1="321.3" y1="157.5" x2="321.3" y2="178.5" stroke="#000000" stroke-width="2.0" />
<line x1="548.1" y1="136.5" x2="548.1" y2="178.5" stroke="#000000" stroke-width="2.0" />
<g>
    <line x1="107.1" y1="546.0" x2="101.85" y2="530.25" stroke="#000000" stroke-width="2.0" />
    <line x1="107.1" y1="546.0" x2="112.35" y2="530.25" stroke="#000000" stroke-width="2.0" />
    <line x1="107.1" y1="157.5" x2="107.1" y2="546.0" stroke="#000000" stroke-width="2.0" />
</g>
<line x1="321.3" y1="178.5" x2="434.7" y2="178.5" stroke="#000000" stroke-width="2.0" />
<line x1="434.7" y1="178.5" x2="548.1" y2="178.5" stroke="#000000" stroke-width="2.0" />
<g>
    <line x1="434.7" y1="252.0" x2="429.45" y2="236.25" stroke="#000000" stroke-width="2.0" />
    <line x1="434.7" y1="252.0" x2="439.95" y2="236.25" stroke="#000000" stroke-width="2.0" />
    <line x1="434.7" y1="178.5" x2="434.7" y2="252.0" stroke="#000000" stroke-width="2.0" />
</g>
<line x1="359.1" y1="262.5" x2="522.9" y2="262.5" stroke="#000000" stroke-width="2.0" />
<line x1="359.1" y1="262.5" x2="359.1" y2="304.5" stroke="#000000" stroke-width="2.0" />
<line x1="522.9" y1="262.5" x2="522.9" y2="304.5" stroke="#000000" stroke-width="2.0" />
<line x1="359.1" y1="304.5" x2="434.7" y2="304.5" stroke="#000000" stroke-width="2.0" />
<line x1="434.7" y1="304.5" x2="522.9" y2="304.5" stroke="#000000" stroke-width="2.0" />
<g>
    <line x1="434.7" y1="378.0" x2="429.45" y2="362.25" stroke="#000000" stroke-width="2.0" />
    <line x1="434.7" y1="378.0" x2="439.95" y2="362.25" stroke="#000000" stroke-width="2.0" />
    <line x1="434.7" y1="304.5" x2="434.7" y2="378.0" stroke="#000000" stroke-width="2.0" />
</g>
<line x1="333.9" y1="388.5" x2="535.5" y2="388.5" stroke="#000000" stroke-width="2.0" />
<line x1="333.9" y1="388.5" x2="333.9" y2="430.5" stroke="#000000" stroke-width="2.0" />
<line x1="535.5" y1="388.5" x2="535.5" y2="430.5" stroke="#000000" stroke-width="2.0" />
<line x1="333.9" y1="430.5" x2="447.3" y2="430.5" stroke="#000000" stroke-width="2.0" />
<line x1="447.3" y1="430.5" x2="535.5" y2="430.5" stroke="#000000" stroke-width="2.0" />
<g>
    <line x1="447.3" y1="546.0" x2="442.05" y2="530.25" stroke="#000000" stroke-width="2.0" />
    <line x1="447.3" y1="546.0" x2="452.55" y2="530.25" stroke="#000000" stroke-width="2.0" />
    <line x1="447.3" y1="430.5" x2="447.3" y2="546.0" stroke="#000000" stroke-width="2.0" />
</g>
<line x1="44.1" y1="556.5" x2="44.1" y2="577.5" stroke="#000000" stroke-width="2.0" />
<line x1="44.1" y1="556.5" x2="220.5" y2="556.5" stroke="#000000" stroke-width="2.0" />
<line x1="371.7" y1="556.5" x2="535.5" y2="556.5" stroke="#000000" stroke-width="2.0" />
<line x1="44.1" y1="577.5" x2="44.1" y2="598.5" stroke="#000000" stroke-width="2.0" />
<line x1="220.5" y1="556.5" x2="220.5" y2="598.5" stroke="#000000" stroke-width="2.0" />
<line x1="371.7" y1="556.5" x2="371.7" y2="598.5" stroke="#000000" stroke-width="2.0" />
<line x1="535.5" y1="556.5" x2="535.5" y2="598.5" stroke="#000000" stroke-width="2.0" />
<line x1="44.1" y1="598.5" x2="107.1" y2="598.5" stroke="#000000" stroke-width="2.0" />
<line x1="107.1" y1="598.5" x2="220.5" y2="598.5" stroke="#000000" stroke-width="2.0" />
<line x1="371.7" y1="598.5" x2="447.3" y2="598.5" stroke="#000000" stroke-width="2.0" />
<line x1="447.3" y1="598.5" x2="535.5" y2="598.5" stroke="#000000" stroke-width="2.0" />
<g>
    <line x1="107.1" y1="714.0" x2="101.85" y2="698.25" stroke="#000000" stroke-width="2.0" />
    <line x1="107.1" y1="714.0" x2="112.35" y2="698.25" stroke="#000000" stroke-width="2.0" />
    <line x1="107.1" y1="598.5" x2="107.1" y2="714.0" stroke="#000000" stroke-width="2.0" />
</g>
<line x1="447.3" y1="598.5" x2="447.3" y2="640.5" stroke="#000000" stroke-width="2.0" />
<line x1="170.1" y1="640.5" x2="447.3" y2="640.5" stroke="#000000" stroke-width="2.0" />
<line x1="447.3" y1="640.5" x2="749.7" y2="640.5" stroke="#000000" stroke-width="2.0" />
<g>
    <line x1="170.1" y1="714.0" x2="164.85" y2="698.25" stroke="#000000" stroke-width="2.0" />
    <line x1="170.1" y1="714.0" x2="175.35" y2="698.25" stroke="#000000" stroke-width="2.0" />
    <line x1="170.1" y1="640.5" x2="170.1" y2="714.0" stroke="#000000" stroke-width="2.0" />
</g>
<g>
    <line x1="447.3" y1="714.0" x2="442.05" y2="698.25" stroke="#000000" stroke-width="2.0" />
    <line x1="447.3" y1="714.0" x2="452.55" y2="698.25" stroke="#000000" stroke-width="2.0" />
    <line x1="447.3" y1="640.5" x2="447.3" y2="714.0" stroke="#000000" stroke-width="2.0" />
</g>
<g>
    <line x1="749.7" y1="714.0" x2="744.45" y2="698.25" stroke="#000000" stroke-width="2.0" />
    <line x1="749.7" y1="714.0" x2="754.95" y2="698.25" stroke="#000000" stroke-width="2.0" />
    <line x1="749.7" y1="640.5" x2="749.7" y2="714.0" stroke="#000000" stroke-width="2.0" />
</g>
<line x1="6.3" y1="724.5" x2="233.1" y2="724.5" stroke="#000000" stroke-width="2.0" />
<line x1="296.1" y1="724.5" x2="560.7" y2="724.5" stroke="#000000" stroke-width="2.0" />
<line x1="598.5" y1="724.5" x2="938.7" y2="724.5" stroke="#000000" stroke-width="2.0" />
<line x1="6.3" y1="724.5" x2="6.3" y2="766.5" stroke="#000000" stroke-width="2.0" />
<line x1="233.1" y1="724.5" x2="233.1" y2="766.5" stroke="#000000" stroke-width="2.0" />
<line x1="296.1" y1="724.5" x2="296.1" y2="766.5" stroke="#000000" stroke-width="2.0" />
<line x1="560.7" y1="724.5" x2="560.7" y2="766.5" stroke="#000000" stroke-width="2.0" />
<line x1="598.5" y1="724.5" x2="598.5" y2="766.5" stroke="#000000" stroke-width="2.0" />
<line x1="938.7" y1="724.5" x2="938.7" y2="766.5" stroke="#000000" stroke-width="2.0" />
<line x1="6.3" y1="766.5" x2="107.1" y2="766.5" stroke="#000000" stroke-width="2.0" />
<line x1="107.1" y1="766.5" x2="233.1" y2="766.5" stroke="#000000" stroke-width="2.0" />
<line x1="296.1" y1="766.5" x2="447.3" y2="766.5" stroke="#000000" stroke-width="2.0" />
<line x1="447.3" y1="766.5" x2="560.7" y2="766.5" stroke="#000000" stroke-width="2.0" />
<line x1="598.5" y1="766.5" x2="749.7" y2="766.5" stroke="#000000" stroke-width="2.0" />
<line x1="749.7" y1="766.5" x2="938.7" y2="766.5" stroke="#000000" stroke-width="2.0" />
<line x1="107.1" y1="766.5" x2="107.1" y2="829.5" stroke="#000000" stroke-width="2.0" />
<line x1="447.3" y1="766.5" x2="447.3" y2="829.5" stroke="#000000" stroke-width="2.0" />
<line x1="749.7" y1="766.5" x2="749.7" y2="829.5" stroke="#000000" stroke-width="2.0" />
<line x1="107.1" y1="829.5" x2="447.3" y2="829.5" stroke="#000000" stroke-width="2.0" />
<line x1="447.3" y1="829.5" x2="749.7" y2="829.5" stroke="#000000" stroke-width="2.0" />
<g>
    <line x1="447.3" y1="913.5" x2="442.05" y2="897.75" stroke="#000000" stroke-width="2.0" />
    <line x1="447.3" y1="913.5" x2="452.55" y2="897.75" stroke="#000000" stroke-width="2.0" />
    <line x1="447.3" y1="829.5" x2="447.3" y2="913.5" stroke="#000000" stroke-width="2.0" />
</g>
<line x1="296.1" y1="913.5" x2="447.3" y2="913.5" stroke="#000000" stroke-width="2.0" />
<line x1="447.3" y1="913.5" x2="560.7" y2="913.5" stroke="#000000" stroke-width="2.0" />
<line x1="296.1" y1="913.5" x2="296.1" y2="955.5" stroke="#000000" stroke-width="2.0" />
<line x1="560.7" y1="913.5" x2="560.7" y2="955.5" stroke="#000000" stroke-width="2.0" />
<line x1="296.1" y1="955.5" x2="447.3" y2="955.5" stroke="#000000" stroke-width="2.0" />
<line x1="447.3" y1="955.5" x2="560.7" y2="955.5" stroke="#000000" stroke-width="2.0" />
<line x1="447.3" y1="955.5" x2="447.3" y2="997.5" stroke="#000000" stroke-width="2.0" />
<line x1="94.5" y1="997.5" x2="447.3" y2="997.5" stroke="#000000" stroke-width="2.0" />
<line x1="447.3" y1="997.5" x2="812.7" y2="997.5" stroke="#000000" stroke-width="2.0" />
<g>
    <line x1="94.5" y1="1050.0" x2="89.25" y2="1034.25" stroke="#000000" stroke-width="2.0" />
    <line x1="94.5" y1="1050.0" x2="99.75" y2="1034.25" stroke="#000000" stroke-width="2.0" />
    <line x1="94.5" y1="997.5" x2="94.5" y2="1050.0" stroke="#000000" stroke-width="2.0" />
</g>
<g>
    <line x1="447.3" y1="1050.0" x2="442.05" y2="1034.25" stroke="#000000" stroke-width="2.0" />
    <line x1="447.3" y1="1050.0" x2="452.55" y2="1034.25" stroke="#000000" stroke-width="2.0" />
    <line x1="447.3" y1="997.5" x2="447.3" y2="1050.0" stroke="#000000" stroke-width="2.0" />
</g>
<g>
    <line x1="812.7" y1="1050.0" x2="807.45" y2="1034.25" stroke="#000000" stroke-width="2.0" />
    <line x1="812.7" y1="1050.0" x2="817.95" y2="1034.25" stroke="#000000" stroke-width="2.0" />
    <line x1="812.7" y1="997.5" x2="812.7" y2="1050.0" stroke="#000000" stroke-width="2.0" />
</g>
<line x1="31.5" y1="1060.5" x2="132.3" y2="1060.5" stroke="#000000" stroke-width="2.0" />
<line x1="384.3" y1="1060.5" x2="522.9" y2="1060.5" stroke="#000000" stroke-width="2.0" />
<line x1="686.7" y1="1060.5" x2="900.9" y2="1060.5" stroke="#000000" stroke-width="2.0" />
<line x1="31.5" y1="1060.5" x2="31.5" y2="1102.5" stroke="#000000" stroke-width="2.0" />
<line x1="132.3" y1="1060.5" x2="132.3" y2="1102.5" stroke="#000000" stroke-width="2.0" />
<line x1="384.3" y1="1060.5" x2="384.3" y2="1102.5" stroke="#000000" stroke-width="2.0" />
<line x1="522.9" y1="1060.5" x2="522.9" y2="1102.5" stroke="#000000" stroke-width="2.0" />
<line x1="686.7" y1="1060.5" x2="686.7" y2="1102.5" stroke="#000000" stroke-width="2.0" />
<line x1="900.9" y1="1060.5" x2="900.9" y2="1102.5" stroke="#000000" stroke-width="2.0" />
<line x1="31.5" y1="1102.5" x2="132.3" y2="1102.5" stroke="#000000" stroke-width="2.0" />
<line x1="384.3" y1="1102.5" x2="522.9" y2="1102.5" stroke="#000000" stroke-width="2.0" />
<line x1="686.7" y1="1102.5" x2="900.9" y2="1102.5" stroke="#000000" stroke-width="2.0" />
<text x="365.4" y="38.85" font-family="sans-serif" font-size="21.0" fill="#000000" >
  pullProject
</text>
<text x="352.8" y="164.85" font-family="sans-serif" font-size="21.0" fill="#000000" >
  generated wiki
</text>
<text x="378.0" y="290.85" font-family="sans-serif" font-size="21.0" fill="#000000" >
  generateXML
</text>
<text x="352.8" y="416.85" font-family="sans-serif" font-size="21.0" fill="#000000" >
  generated xml
</text>
<text x="50.4" y="584.85" font-family="sans-serif" font-size="21.0" fill="#000000" >
  latexFromWiki
</text>
<text x="378.0" y="584.85" font-family="sans-serif" font-size="21.0" fill="#000000" >
  latexFromXML
</text>
<text x="25.2" y="752.85" font-family="sans-serif" font-size="21.0" fill="#000000" >
  generated latex
</text>
<text x="315.0" y="752.85" font-family="sans-serif" font-size="21.0" fill="#000000" >
  generated latex wp
</text>
<text x="617.4" y="752.85" font-family="sans-serif" font-size="21.0" fill="#000000" >
  generated latex partners
</text>
<text x="315.0" y="941.85" font-family="sans-serif" font-size="21.0" fill="#000000" >
  ensureSymbolicLinks
</text>
<text x="50.4" y="1088.85" font-family="sans-serif" font-size="21.0" fill="#000000" >
  latex
</text>
<text x="403.2" y="1088.85" font-family="sans-serif" font-size="21.0" fill="#000000" >
  latex wp
</text>
<text x="705.6" y="1088.85" font-family="sans-serif" font-size="21.0" fill="#000000" >
  latex partners
</text>
</svg>
